<svg width="512" height="512" viewBox="0 0 512 512" fill="none" xmlns="http://www.w3.org/2000/svg">
<path d="M0 0H512V512H0V0Z" fill="#84A59D"/>
<path d="M156 170L175.089 189.089V283.195C178.152 281.246 181.558 279.4 185.289 277.676C187.174 276.805 189.127 275.972 191.141 275.179V189.089L210.23 208.178V269.267C224.258 265.93 239.93 264.143 256 264.143C272.07 264.143 287.742 265.93 301.77 269.267V189.089L320.859 170V275.179C322.873 275.972 324.826 276.805 326.711 277.676C330.442 279.4 333.848 281.246 336.911 283.195V208.178L356 189.089V341.8H336.911V304.552C334.8 298.26 329.282 292.309 320.859 287.258V322.711H301.77V278.979C288.344 274.797 272.427 272.517 256 272.517C239.573 272.517 223.656 274.797 210.23 278.979V341.8H191.141V287.258C182.718 292.309 177.2 298.26 175.089 304.552V322.711H156V170Z" fill="#2B3635"/>
</svg>
